<svg width="32.000000" height="32.000000" viewBox="0 0 32 32" fill="none" xmlns="http://www.w3.org/2000/svg" xmlns:xlink="http://www.w3.org/1999/xlink">
	<desc>
			Created with Pixso.
	</desc>
	<defs>
		<clipPath id="clip8_116">
			<rect rx="0.000000" width="31.000000" height="31.000000" transform="translate(0.500000 0.500000)" fill="white" fill-opacity="0"/>
		</clipPath>
	</defs>
	<g clip-path="url(#clip8_116)">
		<path d="M30.66 16L27.41 12.28L27.86 7.35L23.05 6.26L20.53 2L16 3.94L11.46 2L8.94 6.25L4.13 7.33L4.58 12.26L1.33 16L4.58 19.71L4.13 24.65L8.94 25.74L11.46 30L16 28.04L20.53 29.98L23.05 25.73L27.86 24.64L27.41 19.71L30.66 16ZM13.45 22.29L8.38 17.21L10.36 15.24L13.45 18.34L21.25 10.52L23.22 12.49L13.45 22.29Z" fill="#46F4DB" fill-opacity="1.000000" fill-rule="nonzero"/>
	</g>
</svg>
