<svg width="32.000000" height="32.000000" viewBox="0 0 32 32" fill="none" xmlns="http://www.w3.org/2000/svg" xmlns:xlink="http://www.w3.org/1999/xlink">
	<desc>
			Created with Pixso.
	</desc>
	<defs>
		<clipPath id="clip8_110">
			<rect rx="0.000000" width="31.000000" height="31.000000" transform="translate(0.500000 0.500000)" fill="white" fill-opacity="0"/>
		</clipPath>
	</defs>
	<g clip-path="url(#clip8_110)">
		<path d="M15.98 2.66C8.62 2.66 2.66 8.63 2.66 15.99C2.66 23.35 8.62 29.33 15.98 29.33C23.36 29.33 29.33 23.35 29.33 15.99C29.33 8.63 23.36 2.66 15.98 2.66ZM16 26.66C10.1 26.66 5.33 21.89 5.33 15.99C5.33 10.1 10.1 5.33 16 5.33C21.89 5.33 26.66 10.1 26.66 15.99C26.66 21.89 21.89 26.66 16 26.66ZM20.66 14.66C21.77 14.66 22.66 13.77 22.66 12.66C22.66 11.55 21.77 10.66 20.66 10.66C19.55 10.66 18.66 11.55 18.66 12.66C18.66 13.77 19.55 14.66 20.66 14.66ZM11.33 14.66C12.43 14.66 13.33 13.77 13.33 12.66C13.33 11.55 12.43 10.66 11.33 10.66C10.22 10.66 9.33 11.55 9.33 12.66C9.33 13.77 10.22 14.66 11.33 14.66ZM16 23.33C19.1 23.33 21.74 21.38 22.81 18.66L9.18 18.66C10.25 21.38 12.89 23.33 16 23.33Z" fill="#46F4DB" fill-opacity="1.000000" fill-rule="nonzero"/>
	</g>
</svg>
