<svg width="100.000000" height="40.000000" viewBox="0 0 100 40" fill="none" xmlns="http://www.w3.org/2000/svg" xmlns:xlink="http://www.w3.org/1999/xlink">
	<desc>
			Created with Pixso.
	</desc>
	<defs/>
	<path d="M6.99 24.23L0.26 24.23L9.4 0L16.3 0L25.45 24.23L18.72 24.23L17.17 19.9L8.54 19.9L6.99 24.23ZM42.03 0L48.24 0L48.24 17.65C48.24 20.07 47.69 21.84 46.58 22.95C45.5 24.03 43.75 24.57 41.34 24.57L33.4 24.57C30.99 24.57 29.23 24.03 28.12 22.95C27.04 21.84 26.5 20.07 26.5 17.65L26.5 0L32.71 0L32.71 17.65C32.71 19.03 33.4 19.73 34.78 19.73L39.96 19.73C41.34 19.73 42.03 19.03 42.03 17.65L42.03 0ZM52.38 0L66.88 0C69.29 0 71.04 0.55 72.12 1.66Q73.78 3.28 73.78 6.92L73.78 10.03C73.78 11.95 73.46 13.44 72.81 14.5C72.19 15.56 71.19 16.27 69.81 16.61L74.12 24.23L67.39 24.23L63.42 16.96L58.59 16.96L58.59 24.23L52.38 24.23L52.38 0ZM81.53 24.23L74.8 24.23L83.95 0L90.85 0L100 24.23L93.27 24.23L91.71 19.9L83.09 19.9L81.53 24.23ZM67.57 6.92Q67.57 5.88 67.04 5.36Q66.53 4.84 65.5 4.84L58.59 4.84L58.59 12.11L65.5 12.11Q66.53 12.11 67.04 11.6Q67.57 11.08 67.57 10.03L67.57 6.92ZM10.09 15.4L15.61 15.4L12.85 7.26L10.09 15.4ZM84.64 15.4L90.16 15.4L87.4 7.26L84.64 15.4ZM11.49 32.28L13.36 32.28L13.36 33.78L11.49 33.78L11.49 32.28ZM84.43 32.28L86.3 32.28L86.3 33.78L84.43 33.78L84.43 32.28ZM22.17 37.64L22.17 39.89L20.3 39.89L20.3 32.39L22.17 32.39L22.17 36.19L23.03 36.19L24.2 34.21L26.18 34.21L24.57 36.94L26.18 39.89L24.2 39.89L22.97 37.64L22.17 37.64ZM62.8 39.89Q62.09 40 61.44 40C61.01 40 60.65 39.85 60.36 39.56C60.06 39.26 59.92 38.87 59.92 38.39L59.92 32.39L61.79 32.39L61.79 38.12C61.79 38.23 61.82 38.32 61.89 38.39C61.97 38.46 62.05 38.5 62.16 38.5L62.8 38.5L62.8 39.89ZM66.43 39.89Q65.72 40 65.07 40C64.64 40 64.28 39.85 63.99 39.56C63.69 39.26 63.55 38.87 63.55 38.39L63.55 32.39L65.42 32.39L65.42 38.12C65.42 38.23 65.45 38.32 65.52 38.39C65.6 38.46 65.68 38.5 65.79 38.5L66.43 38.5L66.43 39.89ZM10.46 39.89Q9.43 40 8.43 40C7.95 40 7.56 39.85 7.27 39.56Q7.17 39.45 7.09 39.33Q6.83 38.95 6.83 38.39L6.83 35.66L6.19 35.66L6.19 34.21L6.83 34.21L7.05 32.92L8.7 32.92L8.7 34.21L10.04 34.21L10.04 35.66L8.7 35.66L8.7 38.12C8.7 38.23 8.74 38.32 8.81 38.39Q8.85 38.43 8.9 38.46Q8.98 38.5 9.08 38.5L10.46 38.5L10.46 39.89ZM83.41 39.89Q82.37 40 81.38 40Q80.83 40 80.44 39.74Q80.32 39.66 80.21 39.56C79.92 39.26 79.78 38.87 79.78 38.39L79.78 35.66L79.14 35.66L79.14 34.21L79.78 34.21L79.99 32.92L81.65 32.92L81.65 34.21L82.98 34.21L82.98 35.66L81.65 35.66L81.65 38.12C81.65 38.23 81.68 38.32 81.75 38.39C81.82 38.46 81.91 38.5 82.02 38.5L83.41 38.5L83.41 39.89ZM31.84 39.78C30.46 39.92 29.22 40 28.1 40C27.61 40 27.22 39.85 26.93 39.56Q26.83 39.45 26.75 39.33Q26.5 38.95 26.5 38.39L26.5 35.82C26.5 35.28 26.64 34.86 26.94 34.56C27.25 34.26 27.67 34.1 28.2 34.1L30.34 34.1C30.87 34.1 31.29 34.26 31.59 34.56C31.9 34.86 32.05 35.28 32.05 35.82L32.05 37.8L28.36 37.8L28.36 38.23C28.36 38.33 28.4 38.42 28.47 38.5C28.54 38.57 28.63 38.6 28.74 38.6C29.44 38.6 30.48 38.55 31.84 38.44L31.84 39.78ZM36.26 35.76C35.82 35.76 35.35 35.87 34.88 36.08L34.88 39.89L33.01 39.89L33.01 34.21L34.66 34.21L34.77 34.91C35.38 34.37 36.02 34.1 36.69 34.1L37.17 34.1L37.17 35.76L36.26 35.76ZM58.96 38.28C58.96 38.82 58.81 39.24 58.5 39.55C58.2 39.85 57.78 40 57.25 40L54.79 40C54.26 40 53.84 39.85 53.53 39.55C53.23 39.24 53.08 38.82 53.08 38.28L53.08 35.82C53.08 35.28 53.23 34.86 53.53 34.56C53.84 34.26 54.26 34.1 54.79 34.1L57.25 34.1C57.78 34.1 58.2 34.26 58.5 34.56C58.81 34.86 58.96 35.28 58.96 35.82L58.96 38.28ZM72.41 39.78C71.04 39.92 69.79 40 68.67 40Q68.12 40 67.74 39.74Q67.62 39.66 67.51 39.56Q67.41 39.45 67.33 39.33L67.33 39.33Q67.07 38.95 67.07 38.39L67.07 35.82C67.07 35.28 67.22 34.86 67.52 34.56C67.83 34.26 68.25 34.1 68.78 34.1L70.92 34.1C71.45 34.1 71.87 34.26 72.17 34.56C72.47 34.86 72.63 35.28 72.63 35.82L72.63 37.8L68.94 37.8L68.94 38.23C68.94 38.33 68.98 38.42 69.05 38.5Q69.09 38.54 69.14 38.56Q69.22 38.6 69.31 38.6C70.02 38.6 71.05 38.55 72.41 38.44L72.41 39.78ZM93.14 38.28C93.14 38.82 92.99 39.24 92.68 39.55C92.38 39.85 91.97 40 91.43 40L88.98 40C88.44 40 88.02 39.85 87.72 39.55C87.42 39.24 87.27 38.82 87.27 38.28L87.27 35.82C87.27 35.28 87.42 34.86 87.72 34.56C88.02 34.26 88.44 34.1 88.98 34.1L91.43 34.1C91.97 34.1 92.38 34.26 92.68 34.56C92.99 34.86 93.14 35.28 93.14 35.82L93.14 38.28ZM97.25 35.66C96.87 35.66 96.45 35.73 95.97 35.87L95.97 39.89L94.1 39.89L94.1 34.21L95.76 34.21L95.86 34.74C96.2 34.52 96.54 34.36 96.89 34.26C97.25 34.16 97.54 34.1 97.79 34.1L98.27 34.1Q98.82 34.1 99.2 34.35Q99.33 34.43 99.43 34.54C99.72 34.83 99.87 35.22 99.87 35.71L99.87 39.89L98 39.89L98 36.03C98 35.92 97.96 35.83 97.89 35.76C97.82 35.69 97.73 35.66 97.63 35.66L97.25 35.66ZM0.1 38.39C1.55 38.5 2.69 38.55 3.52 38.55C3.63 38.55 3.72 38.51 3.79 38.44C3.86 38.37 3.89 38.28 3.89 38.17L3.89 37.8L1.6 37.8Q1.05 37.8 0.66 37.55Q0.54 37.47 0.43 37.36Q0.33 37.26 0.25 37.14Q0 36.75 0 36.19L0 35.82Q0 35.26 0.25 34.87Q0.33 34.75 0.43 34.65Q0.54 34.54 0.66 34.46Q1.05 34.21 1.6 34.21L5.23 34.21L5.23 35.6L2.24 35.6C2.13 35.6 2.04 35.64 1.97 35.71C1.9 35.78 1.86 35.87 1.86 35.98C1.86 36.08 1.9 36.17 1.97 36.24C2.04 36.32 2.13 36.35 2.24 36.35L4.16 36.35Q4.71 36.35 5.1 36.6Q5.22 36.69 5.33 36.79Q5.43 36.89 5.51 37.01Q5.76 37.4 5.76 37.96L5.76 38.39Q5.76 38.95 5.51 39.33Q5.43 39.45 5.33 39.56Q5.22 39.66 5.1 39.74Q4.71 40 4.16 40C2.9 40 1.55 39.92 0.1 39.78L0.1 38.39ZM19.45 39.78C18.12 39.92 16.94 40 15.92 40Q15.37 40 14.99 39.74Q14.87 39.66 14.76 39.56Q14.66 39.45 14.58 39.33Q14.32 38.95 14.32 38.39L14.32 35.92C14.32 35.39 14.47 34.97 14.77 34.67C15.08 34.36 15.5 34.21 16.03 34.21L19.45 34.21L19.45 35.66L16.62 35.66C16.33 35.66 16.19 35.8 16.19 36.08L16.19 38.17C16.19 38.28 16.23 38.37 16.3 38.44C16.37 38.51 16.46 38.55 16.56 38.55C17.21 38.55 18.17 38.5 19.45 38.39L19.45 39.78ZM37.71 38.39C39.15 38.5 40.29 38.55 41.12 38.55C41.23 38.55 41.32 38.51 41.39 38.44C41.46 38.37 41.5 38.28 41.5 38.17L41.5 37.8L39.2 37.8Q38.65 37.8 38.27 37.55Q38.14 37.47 38.04 37.36C37.75 37.07 37.6 36.68 37.6 36.19L37.6 35.82C37.6 35.33 37.75 34.94 38.04 34.65Q38.14 34.54 38.27 34.46Q38.65 34.21 39.2 34.21L42.83 34.21L42.83 35.6L39.84 35.6Q39.75 35.6 39.67 35.64Q39.62 35.67 39.58 35.71C39.5 35.78 39.47 35.87 39.47 35.98C39.47 36.08 39.5 36.17 39.58 36.24C39.65 36.32 39.74 36.35 39.84 36.35L41.76 36.35Q42.32 36.35 42.7 36.6Q42.82 36.69 42.93 36.79C43.22 37.08 43.37 37.47 43.37 37.96L43.37 38.39C43.37 38.87 43.22 39.26 42.93 39.56Q42.82 39.66 42.7 39.74Q42.32 40 41.76 40C40.5 40 39.15 39.92 37.71 39.78L37.71 38.39ZM52.34 39.78C51.01 39.92 49.83 40 48.81 40C48.33 40 47.94 39.85 47.65 39.56C47.36 39.26 47.21 38.87 47.21 38.39L47.21 35.92C47.21 35.39 47.36 34.97 47.66 34.67C47.97 34.36 48.39 34.21 48.92 34.21L52.34 34.21L52.34 35.66L49.51 35.66C49.22 35.66 49.08 35.8 49.08 36.08L49.08 38.17C49.08 38.28 49.12 38.37 49.19 38.44C49.26 38.51 49.35 38.55 49.45 38.55C50.1 38.55 51.06 38.5 52.34 38.39L52.34 39.78ZM78.6 39.78C77.27 39.92 76.1 40 75.08 40C74.59 40 74.21 39.85 73.91 39.56Q73.81 39.45 73.73 39.33L73.73 39.33Q73.48 38.95 73.48 38.39L73.48 35.92C73.48 35.39 73.63 34.97 73.93 34.67C74.23 34.36 74.65 34.21 75.19 34.21L78.6 34.21L78.6 35.66L75.77 35.66C75.49 35.66 75.35 35.8 75.35 36.08L75.35 38.17C75.35 38.28 75.38 38.37 75.45 38.44C75.52 38.51 75.61 38.55 75.72 38.55C76.36 38.55 77.32 38.5 78.6 38.39L78.6 39.78ZM13.36 34.42L13.36 39.89L11.49 39.89L11.49 35.87L10.69 35.87L10.69 34.42L13.36 34.42ZM86.3 34.42L86.3 39.89L84.43 39.89L84.43 35.87L83.63 35.87L83.63 34.42L86.3 34.42ZM28.79 35.44C28.51 35.44 28.36 35.58 28.36 35.87L28.36 36.46L30.18 36.46L30.18 35.87C30.18 35.58 30.04 35.44 29.75 35.44L28.79 35.44ZM69.37 35.44C69.08 35.44 68.94 35.58 68.94 35.87L68.94 36.46L70.76 36.46L70.76 35.87C70.76 35.58 70.61 35.44 70.33 35.44L69.37 35.44ZM57.09 35.98C57.09 35.69 56.95 35.55 56.66 35.55L55.38 35.55C55.1 35.55 54.95 35.69 54.95 35.98L54.95 38.12C54.95 38.41 55.1 38.55 55.38 38.55L56.66 38.55C56.95 38.55 57.09 38.41 57.09 38.12L57.09 35.98ZM91.27 35.98C91.27 35.69 91.13 35.55 90.84 35.55L89.56 35.55C89.28 35.55 89.14 35.69 89.14 35.98L89.14 38.12C89.14 38.41 89.28 38.55 89.56 38.55L90.84 38.55C91.13 38.55 91.27 38.41 91.27 38.12L91.27 35.98Z" fill="#07060B" fill-opacity="1.000000" fill-rule="evenodd"/>
</svg>
